#!OML:ASF E:/inclinewalkrobotboard/Project1/Captureday1/Session1/subject1.ASF
:FULLY-SPECIFIED
:DEGREES
376
root 0 0 0 -1.476866363183699 -1.5626470314107999 -3.973872402583072
lowerback 20.038872875385906 3.001560677708994 0.09545644213961613
upperback 2.282447402544576 4.05241301031195 -0.5086644680108439
thorax -8.76291171104616 1.9507905883483159 -1.2613174554878708
lowerneck -8.558080149940166 -5.934699389790348 -1.3989885358787035
upperneck -1.2346018983450424 -8.548210993203659 5.692359410023876
head 1.2983096618098866 -3.9231655613180054 1.4824685447275163
rclavicle -4.1647409906585684E-16 1.1665238024625997E-15
rhumerus 36.033383023899546 -5.130468546483895 -29.748165643934534
rradius 149.5388254166854
rwrist -23.22708617179609
rhand -19.715932009697895 -30.910935575919517
rfingers 7.125019999999961
rthumb 6.640163484657393 -60.74157644205609
lclavicle -1.346311874834828E-15 1.220692194593691E-15
lhumerus -47.37049900194055 -6.117249671307592 79.66620331952998
lradius 61.95999011181915
lwrist 10.875961185347885
lhand -14.641630681003122 -19.727037323544966
lfingers 7.125019999999863
lthumb 11.44341928594533 10.03068368491983
rfemur -2.761691233096613 8.518286638930181 35.0785198336024
rtibia 29.708894124009056
rfoot -19.885040534490386 -8.089679530267082
rtoes 4.641136626839625
lfemur -25.93057746189148 0.767638873086081 -17.739620212237426
ltibia 42.04299831726644
lfoot -2.4237555135151325 -4.382367195822238
ltoes 11.29318337871797
377
root 0 0 0 -1.464714388422577 -1.5344348313965428 -3.967159234196757
lowerback 20.11927278131286 2.980820573925617 0.04653775344436495
upperback 2.2791463695007543 4.022394933778942 -0.4847785308033712
thorax -8.809469795932678 1.9374295743527732 -1.2062690583401254
lowerneck -8.507101069786028 -5.936978174394179 -1.3627394418130796
upperneck -1.0967873730578805 -8.547420679388452 5.6378033936629635
head 1.346809706156634 -3.9234232476006534 1.4580196011915882
rclavicle -1.973429425389385E-16 1.0779164785949677E-15
rhumerus 35.65605797812238 -5.842006016886948 -30.135246477360916
rradius 148.59371162357553
rwrist -22.389144591786753
rhand -19.818206850050423 -30.796380391959133
rfingers 7.125019999999964
rthumb 6.542738479734847 -60.631682083310636
lclavicle -1.153293824352044E-15 1.1309457121498542E-15
lhumerus -47.35428235989364 -6.094809228464163 79.62014671165544
lradius 61.94226538938027
lwrist 10.901940718792575
lhand -14.680209813876989 -19.659579116265704
lfingers 7.125019999999862
lthumb 11.403854421995096 10.113848797881522
rfemur -5.818494924351985 8.233838700430237 34.608165292023045
rtibia 32.250713251535124
rfoot -18.215525248799857 -8.266891162382377
rtoes 4.671596786987965
lfemur -24.24286698836813 0.41624709554277795 -18.405177341972678
ltibia 40.912918627715825
lfoot -1.4139031745253412 -5.201233808660908
ltoes 12.041919195135605
378
root 0 0 0 -1.4468302737214431 -1.4754763425094661 -3.9609383245894416
lowerback 20.181309922055217 2.952889274870233 -0.021467482939927174
upperback 2.2735674935637493 3.981912310451527 -0.44783082396848317
thorax -8.84638784710041 1.9201125076855798 -1.1248492100481913
lowerneck -8.43268330644558 -5.9471266901602355 -1.3276061860846957
upperneck -0.8212293958546688 -8.559026796345481 5.584934943998747
head 1.4375115225120627 -3.9282679851919573 1.4323897718661631
rclavicle 7.587272937873933E-17 8.255729228987591E-16
rhumerus 35.130682804095905 -6.665731433334795 -30.657788027725154
rradius 147.24539046158446
rwrist -21.34881716844678
rhand -19.882710664713336 -30.617222408507157
rfingers 7.125019999999966
rthumb 6.481349856318069 -60.455497367255
lclavicle -9.41209997830608E-16 9.31907323832406E-16
lhumerus -47.329454320301984 -6.077961302562645 79.58310421577683
lradius 61.927502581903255
lwrist 10.930427024100688
lhand -14.718203035635472 -19.59222647822005
lfingers 7.12501999999986
lthumb 11.36428718497696 10.197631845925425
rfemur -10.089076537467989 7.838760357167664 33.98403012565804
rtibia 35.782769051710254
rfoot -15.982454265578294 -8.523051937204706
rtoes 5.156740519262735
lfemur -22.039089203888516 0.19638778912555432 -19.076836670899343
ltibia 40.95969720248827
lfoot -0.1363807329463924 -6.4507472098042795
ltoes 12.17168970644557
379
root 0 0 0 -1.4263788663967016 -1.3988683805162627 -3.954397951150672
lowerback 20.23491924899497 2.9144776980107805 -0.1115185532032168
upperback 2.2745395641667185 3.9266653143502293 -0.39406078378222253
thorax -8.870419506794832 1.8967278176322928 -1.0109737151045135
lowerneck -8.32342769315336 -5.96141794675877 -1.2866826957836832
upperneck -0.42257939507388365 -8.574829155441542 5.521358662896407
head 1.5638641899569317 -3.9350058296265544 1.401328036615006
rclavicle 4.238736627661319E-16 4.515230415992712E-16
rhumerus 34.36122842557218 -7.591432620275556 -31.40003624642436
rradius 145.39035170727368
rwrist -20.041217903766743
rhand -19.9098485493477 -30.350647969519052
rfingers 7.125019999999967
rthumb 6.455511735627045 -60.19091825391713
lclavicle -7.336624109322408E-16 6.768046900466854E-16
lhumerus -47.29353575926238 -6.0724661636744415 79.56232860370847
lradius 61.91705681238558
lwrist 10.960743964437265
lhand -14.752304812285141 -19.52557754164308
lfingers 7.125019999999859
lthumb 11.32823683249975 10.279626129408026
rfemur -14.467130358243992 7.257294353927057 33.215423456732026
rtibia 40.11434674645544
rfoot -13.629143799646334 -8.717482688915338
rtoes 5.903375300633591
lfemur -19.61413789198418 0.0322318534509054 -19.666157892308334
ltibia 41.71319913120229
lfoot 1.2585624828068873 -7.884410298969724
ltoes 11.675138776087955
